<svg width="256" height="256" viewBox="0 0 256 256" fill="none" xmlns="http://www.w3.org/2000/svg">
  <defs>
    <radialGradient id="bgGradient" cx="50%" cy="30%" r="85%">
      <stop offset="0%" stop-color="#ffffff" />
      <stop offset="55%" stop-color="#f5f6fb" />
      <stop offset="100%" stop-color="#d9deec" />
    </radialGradient>
    <radialGradient id="bgHalo" cx="50%" cy="28%" r="48%">
      <stop offset="0%" stop-color="rgba(15,23,42,0.25)" />
      <stop offset="55%" stop-color="rgba(15,23,42,0.05)" />
      <stop offset="100%" stop-color="rgba(15,23,42,0)" />
    </radialGradient>
    <linearGradient id="cc1" x1="0" y1="0" x2="0" y2="1">
      <stop offset="0%" stop-color="#0f172a" />
      <stop offset="50%" stop-color="#4b5563" />
      <stop offset="100%" stop-color="#94a3b8" />
    </linearGradient>
    <linearGradient id="cc2" x1="0" y1="0" x2="0" y2="1">
      <stop offset="0%" stop-color="#0b1220" />
      <stop offset="50%" stop-color="#5f6673" />
      <stop offset="100%" stop-color="#c8ced8" />
    </linearGradient>
    <linearGradient id="cc3" x1="0" y1="0" x2="0" y2="1">
      <stop offset="0%" stop-color="#1c2433" />
      <stop offset="50%" stop-color="#616876" />
      <stop offset="100%" stop-color="#dfe2e8" />
    </linearGradient>
    <linearGradient id="cc4" x1="0" y1="0" x2="0" y2="1">
      <stop offset="0%" stop-color="#1a202e" />
      <stop offset="55%" stop-color="#6c7382" />
      <stop offset="100%" stop-color="#eceef3" />
    </linearGradient>
    <linearGradient id="cc5" x1="0" y1="0" x2="0" y2="1">
      <stop offset="0%" stop-color="#0f172a" />
      <stop offset="50%" stop-color="#5a616f" />
      <stop offset="100%" stop-color="#d0d5de" />
    </linearGradient>
    <linearGradient id="cc6" x1="0" y1="0" x2="0" y2="1">
      <stop offset="0%" stop-color="#121a28" />
      <stop offset="50%" stop-color="#525967" />
      <stop offset="100%" stop-color="#c7ccd6" />
    </linearGradient>
    <linearGradient id="cc7" x1="0" y1="0" x2="0" y2="1">
      <stop offset="0%" stop-color="#0f172a" />
      <stop offset="33%" stop-color="#4c5464" />
      <stop offset="100%" stop-color="#bec3cd" />
    </linearGradient>
    <linearGradient id="cc8" x1="0" y1="0" x2="0" y2="1">
      <stop offset="0%" stop-color="#090f1b" />
      <stop offset="50%" stop-color="#4a515e" />
      <stop offset="100%" stop-color="#b0b5be" />
    </linearGradient>
    <filter id="cGlow">
      <feGaussianBlur stdDeviation="2" result="b" />
      <feMerge>
        <feMergeNode in="b" />
        <feMergeNode in="SourceGraphic" />
      </feMerge>
    </filter>
    <filter id="inkShadow" x="-25%" y="-20%" width="170%" height="180%">
      <feDropShadow dx="0" dy="6" stdDeviation="9" flood-color="#0f172a" flood-opacity="0.45" />
      <feDropShadow dx="0" dy="2" stdDeviation="3" flood-color="#64748b" flood-opacity="0.35" />
    </filter>
  </defs>

  <rect width="256" height="256" rx="48" fill="url(#bgGradient)" />
  <circle cx="128" cy="90" r="110" fill="url(#bgHalo)" />
  <rect x="20" y="20" width="216" height="216" rx="44" stroke="#cbd5f5" stroke-width="2" fill="none" opacity="0.45" />

  <g transform="translate(120 8) scale(0.7)" filter="url(#inkShadow)">
    <path d="M62,12 C6,30 -4,70 18,98 C38,122 116,138 118,174
               C120,206 16,230 14,266 C12,294 54,318 62,332" stroke="url(#cc1)" stroke-width="2.6" stroke-linecap="round" fill="none" filter="url(#cGlow)" opacity="0.92" />
    <path d="M62,12 C118,30 134,68 114,94 C96,118  8,136  12,172
               C16,204 120,230 116,266 C112,294 68,316 62,332" stroke="url(#cc2)" stroke-width="2.4" stroke-linecap="round" fill="none" filter="url(#cGlow)" opacity="0.88" />
    <path d="M52,14 C2,36  -8,76  10,102 C26,126 110,142 102,180
               C94,214  2,240  10,274 C18,298 54,320 58,332" stroke="url(#cc3)" stroke-width="1.8" stroke-linecap="round" fill="none" opacity="0.68" />
    <path d="M72,14 C124,36 136,72 118,100 C102,124 14,142 22,178
               C30,210 124,234 120,268 C116,296 72,318 66,332" stroke="url(#cc4)" stroke-width="1.6" stroke-linecap="round" fill="none" opacity="0.62" />
    <path d="M48,16 C-4,40 -12,80  6,108 C22,130 108,148  90,184
               C74,218  -4,246  8,278 C20,300 54,320 56,332" stroke="url(#cc5)" stroke-width="1.2" stroke-linecap="round" fill="none" opacity="0.48" />
    <path d="M76,16 C128,40 136,76 118,102 C100,126 18,142 28,180
               C38,214 126,238 122,270 C118,298 72,320 66,332" stroke="url(#cc6)" stroke-width="1.1" stroke-linecap="round" fill="none" opacity="0.44" />
    <path d="M54,15 C10,36  2,70  16,98 C28,122 104,140  92,176
               C82,210  6,234 14,268 C20,294 54,316 60,332" stroke="url(#cc1)" stroke-width="0.9" stroke-linecap="round" fill="none" opacity="0.32" />
    <path d="M70,15 C116,36 124,70 110,96 C96,122 22,138 32,174
               C42,208 118,232 116,264 C112,292 70,316 64,332" stroke="url(#cc3)" stroke-width="0.85" stroke-linecap="round" fill="none" opacity="0.28" />
    <path d="M50,16 C8,40  -2,76  12,102 C24,124 100,140  88,176
               C76,210  4,234 12,266 C18,290 52,316 58,332" stroke="url(#cc5)" stroke-width="0.70" stroke-linecap="round" fill="none" opacity="0.22" />
    <path d="M74,16 C118,38 128,72 112,98 C96,122 24,138 34,174
               C44,210 120,232 114,266 C108,290 70,316 66,332" stroke="url(#cc2)" stroke-width="0.65" stroke-linecap="round" fill="none" opacity="0.18" />
    <path d="M60,12 C20,30 10,64 28,90 C44,114 96,130  84,168
               C72,202 12,224 20,260 C26,286 56,308 62,330" stroke="#9ca3af" stroke-width="0.42" stroke-linecap="round" fill="none" opacity="0.18" />
    <path d="M64,12 C106,30 116,62 98,90 C80,114 28,130 44,168
               C60,204 114,224 108,260 C102,286 68,308 62,330" stroke="#cfd3db" stroke-width="0.38" stroke-linecap="round" fill="none" opacity="0.15" />
    <path d="M62,12 C26,20 10,40 14,62 C18,82 108,96 108,116
               C108,140  10,158 14,182 C18,204 110,218 108,242
               C104,266 12,282 16,306 C20,318 56,328 62,332" stroke="url(#cc7)" stroke-width="1.5" stroke-linecap="round" fill="none" filter="url(#cGlow)" opacity="0.60" />
    <path d="M62,12 C98,20 114,40 110,62 C106,82 18,98 20,118
               C22,138 112,156 110,180 C108,202 16,220 20,242
               C24,264 114,282 110,304 C106,318 68,328 62,332" stroke="url(#cc8)" stroke-width="1.2" stroke-linecap="round" fill="none" opacity="0.46" />
    <path d="M56,10 C-8,46 -18,110  6,156 C24,190 116,206 112,244
               C108,274  6,300 12,322 C16,332 52,338 58,338" stroke="url(#cc4)" stroke-width="1.0" stroke-linecap="round" fill="none" opacity="0.36" />
    <path d="M68,10 C132,44 144,108 118,154 C98,188 10,204 14,242
           C18,274 120,298 116,322 C112,332 70,338 66,338" stroke="url(#cc6)" stroke-width="0.9" stroke-linecap="round" fill="none" opacity="0.28" />
  </g>
</svg>
