<svg width="64" height="64" viewBox="0 0 64 64" fill="none" xmlns="http://www.w3.org/2000/svg">
  <defs>
    <linearGradient id="g1" x1="0" y1="0" x2="1" y2="0">
      <stop offset="0%" stop-color="#c084fc"></stop>
      <stop offset="50%" stop-color="#22d3ee"></stop>
      <stop offset="100%" stop-color="#4ade80"></stop>
    </linearGradient>
    <linearGradient id="g2" x1="0" y1="0" x2="1" y2="0">
      <stop offset="0%" stop-color="#f472b6"></stop>
      <stop offset="50%" stop-color="#818cf8"></stop>
      <stop offset="100%" stop-color="#38bdf8"></stop>
    </linearGradient>
    <filter id="glow" x="-20%" y="-20%" width="140%" height="140%">
      <feGaussianBlur stdDeviation="1.5" result="b"></feGaussianBlur>
      <feMerge><feMergeNode in="b"></feMergeNode><feMergeNode in="SourceGraphic"></feMergeNode></feMerge>
    </filter>
  </defs>

  
  <path d="M8,22 C18,22 20,14 32,14 C44,14 46,22 56,22" stroke="url(#g1)" stroke-width="3.5" stroke-linecap="round" fill="none" filter="url(#glow)"></path>
  
  <path d="M8,42 C18,42 20,50 32,50 C44,50 46,42 56,42" stroke="url(#g2)" stroke-width="3.5" stroke-linecap="round" fill="none" filter="url(#glow)"></path>
  
  <path d="M8,32 C14,32 18,24 24,24 C30,24 34,40 40,40 C46,40 50,32 56,32" stroke="url(#g1)" stroke-width="1.8" stroke-linecap="round" fill="none" opacity="0.55"></path>
  <path d="M8,32 C14,32 18,40 24,40 C30,40 34,24 40,24 C46,24 50,32 56,32" stroke="url(#g2)" stroke-width="1.8" stroke-linecap="round" fill="none" opacity="0.45"></path>
</svg>
