<svg width="144" height="344" viewBox="0 0 124 344" fill="none" xmlns="http://www.w3.org/2000/svg">
      <defs>
        <linearGradient id="cc1" x1="0" y1="0" x2="0" y2="1">
          <stop offset="0%" stop-color="#c084fc"></stop><stop offset="50%" stop-color="#22d3ee"></stop><stop offset="100%" stop-color="#4ade80"></stop>
        </linearGradient>
        <linearGradient id="cc2" x1="0" y1="0" x2="0" y2="1">
          <stop offset="0%" stop-color="#f472b6"></stop><stop offset="50%" stop-color="#818cf8"></stop><stop offset="100%" stop-color="#38bdf8"></stop>
        </linearGradient>
        <linearGradient id="cc3" x1="0" y1="0" x2="0" y2="1">
          <stop offset="0%" stop-color="#a78bfa"></stop><stop offset="50%" stop-color="#2dd4bf"></stop><stop offset="100%" stop-color="#86efac"></stop>
        </linearGradient>
        <linearGradient id="cc4" x1="0" y1="0" x2="0" y2="1">
          <stop offset="0%" stop-color="#fb923c"></stop><stop offset="55%" stop-color="#e879f9"></stop><stop offset="100%" stop-color="#818cf8"></stop>
        </linearGradient>
        <linearGradient id="cc5" x1="0" y1="0" x2="0" y2="1">
          <stop offset="0%" stop-color="#34d399"></stop><stop offset="50%" stop-color="#60a5fa"></stop><stop offset="100%" stop-color="#c084fc"></stop>
        </linearGradient>
        <linearGradient id="cc6" x1="0" y1="0" x2="0" y2="1">
          <stop offset="0%" stop-color="#fbbf24"></stop><stop offset="50%" stop-color="#f472b6"></stop><stop offset="100%" stop-color="#818cf8"></stop>
        </linearGradient>
        <linearGradient id="cc7" x1="0" y1="0" x2="0" y2="1">
          <stop offset="0%" stop-color="#e879f9"></stop><stop offset="33%" stop-color="#22d3ee"></stop>
          <stop offset="66%" stop-color="#f472b6"></stop><stop offset="100%" stop-color="#a78bfa"></stop>
        </linearGradient>
        <linearGradient id="cc8" x1="0" y1="0" x2="0" y2="1">
          <stop offset="0%" stop-color="#38bdf8"></stop><stop offset="50%" stop-color="#fbbf24"></stop><stop offset="100%" stop-color="#4ade80"></stop>
        </linearGradient>
        <linearGradient id="cylColor" x1="0" y1="0" x2="1" y2="0">
          <stop offset="0%" stop-color="#000" stop-opacity="0.55"></stop>
          <stop offset="20%" stop-color="#000" stop-opacity="0.15"></stop>
          <stop offset="44%" stop-color="#fff" stop-opacity="0.04"></stop>
          <stop offset="62%" stop-color="#000" stop-opacity="0.10"></stop>
          <stop offset="100%" stop-color="#000" stop-opacity="0.50"></stop>
        </linearGradient>
        <filter id="cGlow">
          <feGaussianBlur stdDeviation="2" result="b"></feGaussianBlur>
          <feMerge><feMergeNode in="b"></feMergeNode><feMergeNode in="SourceGraphic"></feMergeNode></feMerge>
        </filter>
      </defs>

      <g transform="">
      <!-- ══ PRIMARY 2-TURN CCW COLOR STRANDS (center=62) ══ -->

      <!-- A: Outer left — wide, left-first CCW -->
      <path d="M62,12 C6,30 -4,70 18,98 C38,122 116,138 118,174
               C120,206 16,230 14,266 C12,294 54,318 62,332" stroke="url(#cc1)" stroke-width="2.6" stroke-linecap="round" fill="none" filter="url(#cGlow)" opacity="0.92"></path>

      <!-- B: Outer right — phase-offset partner -->
      <path d="M62,12 C118,30 134,68 114,94 C96,118  8,136  12,172
               C16,204 120,230 116,266 C112,294 68,316 62,332" stroke="url(#cc2)" stroke-width="2.4" stroke-linecap="round" fill="none" filter="url(#cGlow)" opacity="0.88"></path>

      <!-- C: Second left — extra left amplitude -->
      <path d="M52,14 C2,36  -8,76  10,102 C26,126 110,142 102,180
               C94,214  2,240  10,274 C18,298 54,320 58,332" stroke="url(#cc3)" stroke-width="1.8" stroke-linecap="round" fill="none" opacity="0.68"></path>

      <!-- D: Second right — wider right than partner -->
      <path d="M72,14 C124,36 136,72 118,100 C102,124 14,142 22,178
               C30,210 124,234 120,268 C116,296 72,318 66,332" stroke="url(#cc4)" stroke-width="1.6" stroke-linecap="round" fill="none" opacity="0.62"></path>

      <!-- E: Third left — deep asymmetric curl -->
      <path d="M48,16 C-4,40 -12,80  6,108 C22,130 108,148  90,184
               C74,218  -4,246  8,278 C20,300 54,320 56,332" stroke="url(#cc5)" stroke-width="1.2" stroke-linecap="round" fill="none" opacity="0.48"></path>

      <!-- F: Third right -->
      <path d="M76,16 C128,40 136,76 118,102 C100,126 18,142 28,180
               C38,214 126,238 122,270 C118,298 72,320 66,332" stroke="url(#cc6)" stroke-width="1.1" stroke-linecap="round" fill="none" opacity="0.44"></path>

      <!-- G: Fourth left (inner) -->
      <path d="M54,15 C10,36  2,70  16,98 C28,122 104,140  92,176
               C82,210  6,234 14,268 C20,294 54,316 60,332" stroke="url(#cc1)" stroke-width="0.9" stroke-linecap="round" fill="none" opacity="0.32"></path>

      <!-- H: Fourth right -->
      <path d="M70,15 C116,36 124,70 110,96 C96,122 22,138 32,174
               C42,208 118,232 116,264 C112,292 70,316 64,332" stroke="url(#cc3)" stroke-width="0.85" stroke-linecap="round" fill="none" opacity="0.28"></path>

      <!-- I: Fifth left asymmetric density -->
      <path d="M50,16 C8,40  -2,76  12,102 C24,124 100,140  88,176
               C76,210  4,234 12,266 C18,290 52,316 58,332" stroke="url(#cc5)" stroke-width="0.70" stroke-linecap="round" fill="none" opacity="0.22"></path>

      <!-- J: Fifth right -->
      <path d="M74,16 C118,38 128,72 112,98 C96,122 24,138 34,174
               C44,210 120,232 114,266 C108,290 70,316 66,332" stroke="url(#cc2)" stroke-width="0.65" stroke-linecap="round" fill="none" opacity="0.18"></path>

      <!-- Deep back filaments -->
      <path d="M60,12 C20,30 10,64 28,90 C44,114 96,130  84,168
               C72,202 12,224 20,260 C26,286 56,308 62,330" stroke="#7dd3fc" stroke-width="0.42" stroke-linecap="round" fill="none" opacity="0.14"></path>
      <path d="M64,12 C106,30 116,62 98,90 C80,114 28,130 44,168
               C60,204 114,224 108,260 C102,286 68,308 62,330" stroke="#d8b4fe" stroke-width="0.38" stroke-linecap="round" fill="none" opacity="0.12"></path>

      <!-- ══ HIGH-FREQUENCY STRAND — 3 tight CCW turns ══ -->
      <path d="M62,12 C26,20 10,40 14,62 C18,82 108,96 108,116
               C108,140  10,158 14,182 C18,204 110,218 108,242
               C104,266 12,282 16,306 C20,318 56,328 62,332" stroke="url(#cc7)" stroke-width="1.5" stroke-linecap="round" fill="none" filter="url(#cGlow)" opacity="0.60"></path>
      <!-- HF partner 180° offset -->
      <path d="M62,12 C98,20 114,40 110,62 C106,82 18,98 20,118
               C22,138 112,156 110,180 C108,202 16,220 20,242
               C24,264 114,282 110,304 C106,318 68,328 62,332" stroke="url(#cc8)" stroke-width="1.2" stroke-linecap="round" fill="none" opacity="0.46"></path>

      <!-- ══ LOW-FREQUENCY STRAND — 1.3 lazy turns ══ -->
      <path d="M56,10 C-8,46 -18,110  6,156 C24,190 116,206 112,244
               C108,274  6,300 12,322 C16,332 52,338 58,338" stroke="url(#cc4)" stroke-width="1.0" stroke-linecap="round" fill="none" opacity="0.36"></path>
      <!-- LF partner — right-starting -->
      <path d="M68,10 C132,44 144,108 118,154 C98,188 10,204 14,242
           C18,274 120,298 116,322 C112,332 70,338 66,338" stroke="url(#cc6)" stroke-width="0.9" stroke-linecap="round" fill="none" opacity="0.28"></path>
      </g>
</svg>